<?xml version="1.0" standalone="no"?>
<!DOCTYPE svg PUBLIC "-//W3C//DTD SVG 20010904//EN"
 "http://www.w3.org/TR/2001/REC-SVG-20010904/DTD/svg10.dtd">
<svg version="1.0" xmlns="http://www.w3.org/2000/svg"
 width="128.000000pt" height="128.000000pt" viewBox="0 0 128.000000 128.000000"
 preserveAspectRatio="xMidYMid meet">
<metadata>
Created by potrace 1.14, written by Peter Selinger 2001-2017
</metadata>
<g transform="translate(0.000000,128.000000) scale(0.100000,-0.100000)"
fill="#000000" stroke="none">
<path d="M419 1113 c-1 -42 -1 -104 0 -116 1 -4 71 -7 157 -6 86 0 158 -2 161
-5 3 -3 5 -126 5 -274 0 -278 -4 -303 -45 -354 -18 -23 -79 -48 -115 -48 -44
0 -112 27 -155 61 -44 36 -46 35 -102 -47 l-39 -56 30 -27 c16 -14 40 -33 53
-41 22 -15 18 -15 -53 -14 l-76 1 0 -34 0 -33 405 0 405 0 0 33 0 33 -139 -1
-139 0 34 28 c41 34 78 95 95 157 9 32 13 154 14 413 l1 367 -248 0 -248 0 -1
-37z"/>
</g>
</svg>
